<svg width="53" height="67" viewBox="0 0 53 67" fill="none" xmlns="http://www.w3.org/2000/svg">
    <path d="M44.7742 42.776C47.3922 39.6657 49.4964 36.2558 50.9378 32.4345C52.4184 28.5085 52.6969 24.5301 51.695 20.4606C51.357 19.0884 50.3589 18.7069 49.381 19.6831C47.396 21.6651 45.3964 23.6304 43.3109 25.5031C43.3151 25.3713 43.3156 25.239 43.3155 25.1072C43.3439 25.0116 43.3562 24.9119 43.3516 24.8123C43.3375 22.1183 43.309 19.4242 43.2841 16.7303L43.2806 16.5626C43.2529 15.5937 43.2252 14.6247 43.1974 13.6556C43.196 13.5995 43.1945 13.5435 43.1931 13.4875C43.1358 12.2838 43.0785 11.0805 43.0212 9.87751C43.0201 9.61679 43.0189 9.35619 43.0177 9.09571C43.0597 7.76611 42.9433 6.43624 42.6711 5.13414C42.6695 4.7563 42.6679 4.37846 42.6662 4.00062V3.63951C42.6662 3.29164 42.6662 2.94377 42.6662 2.5959C42.6662 2.44604 42.6662 2.29617 42.6662 2.14631C42.6662 2.00319 42.6662 1.86013 42.6662 1.71713L42.594 1.44738C42.5924 1.41862 42.5832 1.39078 42.5674 1.36668L42.6772 0.920705L42.7675 0.833496H35.2116C35.2176 0.865274 35.2236 0.897113 35.2297 0.929011L35.2116 0.932261L34.5964 1.00882L34.4123 1.02886L33.808 1.09747L33.4469 1.11552L32.9341 1.18666L32.6544 1.20725L32.147 1.27568L31.863 1.29698L31.4382 1.36144L31.2493 1.38166L30.7362 1.44955L30.4594 1.46761L28.8918 1.54976L28.702 1.55644L28.1062 1.62722L27.7343 1.64798L26.6072 1.724L26.2405 1.73519L25.2998 1.80452L25.0109 1.82023L24.0585 1.90058L23.7801 1.90961L21.8619 1.98761L21.406 2.00133L17.9965 2.07608L17.5405 2.08926L14.3997 2.15444L13.9405 2.17249L12.9878 2.25158L12.7115 2.25754L9.9129 2.33987L9.72494 2.34384L8.33268 2.4296L8.14148 2.43647L7.36509 2.50436L7.08702 2.52422L6.5858 2.59788L6.56775 2.60294L5.96686 2.68292L5.85763 2.69701L5.35063 2.77049L5.06391 2.79306L4.72464 2.85481L4.4511 2.87432L3.67344 2.95484L3.4846 2.96206L1.92189 2.9673L1.80578 2.9478L1.28219 2.93679C0.609617 3.34159 1.07689 3.93092 1.03879 4.43847C1.04108 4.49444 1.0433 4.55041 1.04547 4.60638C1.07243 4.90177 1.09945 5.19722 1.12654 5.49273L1.13141 5.92407C1.12389 6.11376 1.12848 6.30373 1.14514 6.49283C1.98942 12.1908 2.64375 17.9039 2.62046 23.6772C2.62215 23.9965 2.62377 24.3159 2.62533 24.6352C2.65362 31.1388 2.6819 37.6424 2.71019 44.146L2.71596 44.3129C2.74317 44.7842 2.77037 45.2556 2.79758 45.727C2.80011 45.7826 2.80263 45.8381 2.80516 45.8936C2.91951 47.9464 3.03387 49.9992 3.14822 52.052C3.14978 52.1957 3.15129 52.3394 3.15274 52.4832C3.15093 52.6292 3.14785 52.7753 3.14749 52.9212C3.13979 56.7225 3.13221 60.5238 3.12475 64.3253L3.07057 64.3265L3.10903 64.3289C3.10193 64.5425 3.09454 64.7563 3.08684 64.9702L3.14244 65.0267L3.20328 65.135L3.30836 65.1975L3.60051 65.2181L3.90745 65.0442L4.64772 65.0177H6.19888L6.85068 65.0444L9.80276 65.1083L12.1057 65.1273L13.7591 65.2011L14.4903 65.2212L15.3408 65.2892L15.8102 65.3084L18.9383 65.3701L19.3422 65.4035C19.3448 65.415 19.3508 65.4253 19.3593 65.4334C19.3678 65.4414 19.3785 65.4467 19.3901 65.4487C19.5018 65.6516 19.6828 65.5559 19.8415 65.5529L20.3496 65.4859L20.3578 65.4788C20.6796 65.1605 21.042 65.3436 21.3935 65.3949L21.7781 65.3703L22.717 65.31L23.1832 65.2824L23.9473 65.2858L25.2951 65.3087L31.2388 65.3727L31.7097 65.3963L32.4659 65.455L33.3777 65.4846L34.4031 65.5507L34.7844 65.5722L35.5427 65.635L35.9262 65.6601L37.0374 65.7253L37.3328 65.7477L38.9708 65.8139L39.2649 65.8358L41.2566 65.9046C41.7564 65.7829 42.1812 66.3962 42.7039 66.0523L43.277 66.079L43.3935 66.0994L44.5189 66.1052L44.6082 65.9714L44.6151 65.9636L44.6216 65.956C44.6469 65.8742 44.705 65.7872 44.6938 65.7108C44.4002 63.7944 44.7281 61.8959 44.8383 59.9901C44.9284 58.5454 44.8557 57.095 44.6216 55.6665C44.6341 55.3957 44.6305 55.1267 44.6185 54.8573L44.7191 54.7903L44.7287 54.7845L45.2292 54.3891L45.2952 54.3317L45.4939 54.2071C45.5082 54.2064 45.5219 54.2009 45.5328 54.1916C45.5437 54.1822 45.5512 54.1695 45.5542 54.1555C45.8611 53.8653 46.1767 53.5842 46.471 53.2819C46.6731 53.0743 46.7847 52.6525 47.1515 53.1353C47.3321 53.3733 47.6286 53.6662 47.9149 53.3509C48.2484 52.9837 47.7988 52.8495 47.587 52.6648C47.5851 52.6287 47.5827 52.5926 47.5807 52.5565L49.0093 52.5431L49.1615 52.4844C49.4865 52.3434 49.8566 52.2196 49.4383 51.7844L49.1615 51.7799C49.1322 51.7799 49.1038 51.7895 49.0806 51.8074L48.9921 51.8711L48.901 51.8953C48.6215 51.9327 48.3174 52.1425 48.0942 51.781L49.4451 50.5229C49.4506 50.5227 49.456 50.5214 49.461 50.519C49.466 50.5166 49.4704 50.5132 49.4739 50.509C49.4775 50.5049 49.4802 50.5 49.4818 50.4947C49.4834 50.4895 49.4839 50.4839 49.4832 50.4785C49.6336 50.2587 49.758 50.0406 49.4439 49.8499L49.1752 49.8527L48.2851 50.7746C48.28 50.7735 48.2748 50.7736 48.2698 50.775C48.2648 50.7764 48.2602 50.779 48.2565 50.7826C48.2527 50.7861 48.2498 50.7905 48.2482 50.7954C48.2465 50.8003 48.246 50.8056 48.2468 50.8107L48.0226 51.031L47.9554 51.0851L47.8252 51.166C47.7739 51.1581 47.7226 51.1499 47.6714 51.1427C47.8234 50.5724 47.9355 49.9982 47.8142 49.4047C47.8154 49.3986 47.8153 49.3923 47.8139 49.3862C47.8124 49.3802 47.8097 49.3745 47.8059 49.3696C47.802 49.3647 47.7972 49.3606 47.7916 49.3578C47.7861 49.3549 47.78 49.3533 47.7737 49.3531C47.7592 49.3328 47.7373 49.3189 47.7127 49.3144C47.5795 49.1819 47.4489 49.1588 47.3231 49.3242C47.0089 49.9724 47.287 50.771 46.8024 51.376C46.7765 51.3747 46.7506 51.3772 46.7254 51.3836L46.2448 50.4628C46.2447 50.4561 46.2434 50.4495 46.2408 50.4434C46.2382 50.4372 46.2344 50.4317 46.2297 50.427C46.2249 50.4223 46.2193 50.4186 46.2131 50.4161C46.207 50.4136 46.2004 50.4123 46.1937 50.4124L46.1049 50.3784L45.8501 50.3858C45.3639 50.9094 45.814 51.3439 46.0921 51.6533C46.4591 52.0605 46.4665 52.3355 46.1009 52.6841L46.0422 52.7455L45.1254 53.6602L45.0531 53.7203L44.8616 53.84L44.7987 53.8969L44.5671 54.0668C44.5454 53.796 44.5228 53.5232 44.5057 53.2511C44.5269 53.1224 44.5318 52.9917 44.5203 52.8618C44.5241 49.8169 44.5216 46.7718 44.5283 43.727C44.5337 43.3944 44.531 43.0647 44.7742 42.776ZM47.7663 22.6587C48.4933 21.9599 49.2017 21.2413 49.9397 20.5545C50.3855 20.1392 50.7578 20.1874 50.9246 20.8324C52.4232 26.624 51.0273 31.9435 48.2331 37.0152C47.883 37.6507 47.4486 38.2834 46.8083 38.7075L46.7011 38.7776C46.6732 38.7794 46.6466 38.79 46.6251 38.8077L46.5406 38.8697L45.2147 39.6074L45.0703 39.6677L44.7791 39.776L44.6843 39.8338L44.3378 39.9535L44.1859 40.0182L43.7253 40.2096L43.571 40.2818L43.4583 40.3119L43.368 40.361L43.0217 40.4768L42.8715 40.5461L42.5804 40.6573L42.4338 40.7223L41.8808 40.9116L41.7036 40.9767C41.6747 40.9737 41.6455 40.9788 41.6193 40.9915L41.3646 41.0692L41.2658 41.086L41.012 41.1566L40.9143 41.1717L40.499 41.2488L40.3842 41.2669L39.8804 41.336L39.7697 41.353L39.2642 41.4238L38.0098 41.4227L37.3256 41.3516L37.0513 41.3322L36.8877 41.2727L36.7747 41.2487L36.5264 41.1676L36.5109 41.1623L36.361 41.0981L36.2597 41.0688L36.0942 41.0017L35.8091 41.0146L35.4785 41.0688C35.1479 41.8961 35.0018 42.7675 35.3853 43.5811C35.9775 44.8372 36.6625 46.0547 37.7753 46.952C38.2809 47.3594 37.6464 47.2644 37.5736 47.4166L37.4214 47.4849L37.1334 47.5952L36.989 47.6623L36.5181 47.8584L36.3681 47.9245L36.2521 47.9519L36.0925 48.0086L35.9932 48.0247L35.6563 48.0969L35.5532 48.1175L35.3837 48.1814L35.291 48.1995L35.0478 48.275L34.935 48.2945L32.7575 48.2912C30.151 47.952 27.5214 47.7784 25.0247 46.8126C22.8125 45.9568 20.869 42.5503 21.5779 40.2957C21.915 39.2234 23.1267 38.7205 23.8518 37.8715C23.9764 37.7258 24.21 37.6034 24.0684 37.4241C23.8637 37.165 23.7523 37.4978 23.6458 37.5924C22.6834 38.4198 21.6401 39.1481 20.5315 39.7661L20.3699 39.8396L19.7324 40.042L18.6113 40.0313L18.5117 40.0133L18.3479 39.9501C17.3514 39.62 16.8867 38.9133 16.8217 37.8811C16.7059 36.0418 15.264 35.4694 13.8817 34.822C12.3246 34.0925 10.7039 33.4082 10.5503 31.3192C10.4632 30.1384 10.8554 29.0485 11.2593 28.0011C11.923 26.2797 11.4969 24.9593 10.0555 23.9421C8.5015 22.8455 8.48164 21.3713 8.88663 19.7546C9.01085 19.2585 9.11141 18.7549 9.26579 18.2681C9.8414 16.4445 10.1261 14.6454 8.93917 12.9327C8.97871 12.9387 10.8955 13.7791 10.9468 13.7968C11.0134 13.808 11.8676 14.0455 11.916 14.0664C12.3298 14.2845 12.7586 14.4786 13.1541 14.7258C14.0319 15.2747 14.4974 15.9402 14.2033 17.1019C13.8014 18.6893 14.0218 20.2378 15.0938 21.5782C15.7481 22.3963 15.4513 23.2444 15.1064 24.0618C13.892 26.9414 14.1029 27.6093 16.7731 29.2778C17.1533 29.5156 17.4917 29.8206 17.8494 30.0945C17.87 30.1085 17.888 30.1261 17.9025 30.1465C18.8052 31.4046 19.6268 32.6988 20.1179 34.1933C20.2245 34.5679 20.4141 34.9138 20.6725 35.2053C20.9309 35.4967 21.2516 35.7264 21.6107 35.8771C21.6866 35.8771 22.1784 35.7773 22.2141 35.7697C22.2707 35.7495 22.6836 35.6267 22.8324 35.5855L22.9837 35.5267L22.9909 35.5234L22.8244 35.3696C22.793 35.3653 22.1464 35.1795 22.1159 35.1802C21.1669 35.1731 20.9335 34.3885 20.6861 33.7394C20.2637 32.6501 19.7313 31.6067 19.0972 30.6255C18.4806 29.6437 17.6067 28.8496 16.5705 28.3296L16.5021 28.2685C14.7659 26.8727 14.6946 26.6616 15.6194 24.6105C16.2461 23.2202 16.3656 21.9791 15.3451 20.6415C14.4091 19.4148 14.6991 17.918 14.961 16.4864C15.0351 16.0818 15.3888 15.5917 14.8166 15.2406C14.7726 15.2326 12.9957 13.7799 11.9331 13.39C11.8743 13.3687 11.3362 13.2246 11.3021 13.2198C11.19 13.1837 11.6493 13.1382 11.823 13.0974C12.2728 13.0937 13.2716 13.0549 13.3216 13.039C13.8611 13.0771 14.4685 12.8263 14.8804 13.4061C15.2285 13.4388 16.9919 15.2788 17.0154 15.2996C17.3088 15.508 17.3487 15.7654 17.3168 16.1301C17.1823 17.6688 16.7101 19.2048 17.1952 20.7569C17.2829 20.9531 17.3937 21.1382 17.5251 21.3083L17.7136 21.5047L18.6252 21.9955L18.7697 22.059L18.8758 22.087L19.0364 22.1555C20.9936 22.748 20.743 24.407 20.8943 25.9097C21.0595 27.551 21.4488 29.1029 23.2798 29.7265C23.3285 29.7471 23.7613 29.8975 23.7964 29.9053C23.8493 29.9266 24.338 30.0728 24.4001 30.0849C24.4565 30.1044 24.6906 30.1631 24.7513 30.1728C24.8075 30.1909 25.1317 30.2927 25.1812 30.3117L25.9991 30.5623C26.0143 30.5504 26.8057 31.0211 27.0922 31.2163C27.168 31.2485 27.2489 31.2668 27.3311 31.2704C27.295 31.2051 27.2753 31.1193 27.2213 31.0776C26.9008 30.8295 26.5726 30.5917 26.2463 30.3505L25.6297 29.9952C25.6035 29.9746 25.3118 29.7785 25.2867 29.7574C25.1391 29.6897 24.6005 29.4801 24.563 29.4728C24.4817 29.4476 24.2575 29.3856 24.2266 29.3798C24.1697 29.3573 23.8251 29.2383 23.7097 29.2013C23.6799 29.1845 22.7657 28.7233 22.7387 28.7024C21.7456 27.8303 21.653 26.6168 21.4972 25.4275C21.4958 25.3396 21.4944 25.2517 21.493 25.1639C21.4547 23.9439 21.5111 22.6847 20.1791 22.0018L20.1026 21.9379L19.3787 21.5667L19.2274 21.5037L19.1227 21.4766L18.9602 21.4069C17.3532 20.8862 17.6327 19.6082 17.7483 18.3941C17.7732 18.133 17.7857 17.8705 17.8039 17.6093L17.6586 17.4959L17.8066 17.3456C18.7565 15.14 16.8596 14.4151 15.7044 13.3041L15.7855 13.1994C16.6395 13.4872 17.1265 14.401 18.0691 14.5377C18.1899 14.5713 18.3123 14.5987 18.4359 14.6198H19.3868L19.7277 14.5768L20.3003 14.8838C20.3194 14.8981 20.3382 14.913 20.3566 14.9284C20.1674 16.249 21.0311 17.2465 21.4887 18.3427C22.126 19.8691 22.8878 21.3442 23.4531 22.9073C23.5701 23.217 23.7585 23.4948 24.0031 23.7179C24.2476 23.9411 24.5414 24.1034 24.8605 24.1916C24.9096 24.2136 25.5412 24.4518 25.8081 24.5487C25.8633 24.5689 26.2678 24.6751 26.3238 24.6932L26.5224 24.7208L27.8171 24.786L28.1869 24.8102L28.6051 24.8678L28.9938 24.9813L29.1383 25.051C29.9327 25.3331 30.3189 25.9372 30.4608 26.7327C30.4298 26.8311 30.6659 27.7761 30.8153 28.1503C30.8259 28.2643 30.8478 28.3771 30.8806 28.4868C31.007 28.8003 31.0599 29.1632 31.4077 29.3412C31.3218 29.0831 31.2361 28.825 31.1504 28.5668C31.1143 28.4585 31.0796 28.348 31.0442 28.2386C30.855 27.2471 31.3248 26.16 30.6109 25.2446C30.5885 25.2313 30.5702 25.2121 30.558 25.1892C30.214 24.8158 29.7799 24.537 29.2973 24.3795C29.25 24.3577 29.0861 24.2961 29.0512 24.2871C28.9675 24.262 28.3601 24.1551 28.1896 24.1333L27.648 24.1107L26.5213 24.0448C26.4615 24.0359 25.6924 23.7996 25.638 23.7756C24.4973 23.4925 24.0448 22.6489 23.6463 21.6163C22.8327 19.5082 21.7991 17.6665 20.8999 15.5914C20.9244 15.589 20.8378 14.815 20.8378 14.815C20.843 14.8085 20.8459 14.4472 20.8459 14.4472C20.8459 14.4472 21.9144 14.4412 21.9411 14.4391C22.4467 14.6518 23.1216 15.1071 23.6277 15.3202C23.6774 15.3399 24.424 15.5406 24.481 15.5594C25.7449 16.0328 26.7091 16.9836 27.8451 17.66C28.2743 17.812 28.7112 17.9408 29.1541 18.046L30.2765 18.106C30.4858 18.1161 31.835 18.2629 31.9473 18.2827C32.04 18.2921 32.3298 18.342 32.3821 18.3575C33.7617 18.925 34.32 20.0619 34.4997 21.4459C34.5358 21.784 34.639 22.1114 34.8033 22.4091C34.9676 22.7067 35.1897 22.9686 35.4566 23.1792C36.9998 24.4812 37.3214 26.531 36.0942 28.0658C35.4667 28.8503 34.7514 29.6727 33.7699 30.1263C33.6991 30.1589 33.6682 30.2785 33.6187 30.3577C33.6953 30.329 33.7749 30.3066 33.8477 30.2705C34.6295 29.8838 35.4153 29.5046 36.188 29.1005C36.4228 28.9781 36.5407 29.1186 36.69 29.2269C37.3799 29.7225 38.0167 29.8193 38.8702 29.4147C42.317 27.7832 45.064 25.2554 47.7663 22.6587ZM43.8582 53.1922C43.8699 53.6456 43.8604 54.102 43.868 54.557L43.8162 54.5944L43.7244 54.6247L43.6387 54.6818L43.5496 54.7053L43.3871 54.7733L43.2857 54.7946L43.1232 54.8607L43.0228 54.8788L42.5124 54.8826L42.2338 54.8616L41.895 54.7894C41.4853 54.6117 41.1624 54.2794 40.9966 53.8648C40.285 51.8861 39.6018 49.8973 38.9126 47.9106C38.892 47.8675 38.8802 47.8208 38.8778 47.7731C38.8755 47.7254 38.8825 47.6777 38.8987 47.6327C38.9149 47.5878 38.9398 47.5465 38.972 47.5113C39.0043 47.476 39.0432 47.4475 39.0865 47.4274C40.7034 46.5122 42.0947 45.3093 43.4233 44.0252C43.5342 43.9447 43.6557 43.8799 43.7844 43.8326C43.8115 43.9568 43.8296 44.0829 43.8385 44.2098C43.8417 47.0937 43.8426 49.9776 43.8412 52.8614C43.8355 52.972 43.8413 53.0828 43.8582 53.1922ZM38.7288 46.6693C38.4632 46.607 38.4363 46.3894 38.4387 46.1518C38.4508 44.8406 38.4549 43.5291 38.4618 42.2179C38.8438 42.1532 39.229 42.1087 39.6157 42.0844L39.7912 42.0389C40.1509 41.972 40.2211 42.1422 40.2224 42.4746C40.2263 43.4224 40.268 44.3705 40.2998 45.3175C40.3148 45.7582 39.1573 46.77 38.7288 46.6693ZM40.9233 41.9064C40.9513 41.8902 41.9525 41.6092 41.979 41.5957C42.9721 41.1253 42.9044 43.4092 42.9415 43.435L41.0964 45.2127L40.9265 45.1676C40.9255 44.0809 40.9244 42.994 40.9233 41.907V41.9064ZM37.7558 45.8041L37.6726 45.8221C36.8297 44.5763 35.5537 43.5076 36.0021 41.7343C36.0021 41.7343 37.1013 42.0303 37.2159 42.04L37.3933 42.0859C37.7118 42.0859 37.7787 42.2404 37.771 42.5517C37.7433 43.636 37.7576 44.7193 37.7558 45.8044V45.8041ZM7.99143 21.9439C8.12902 23.1162 8.83426 23.9065 9.72097 24.5758C10.8552 25.4322 11.1002 26.4565 10.6014 27.8135C10.1935 28.923 9.78345 30.0634 9.85603 31.3044C10.0075 33.8946 11.9916 34.784 13.9308 35.6197C15.3043 36.2112 16.1352 37.0215 16.26 38.5707C16.353 39.7298 17.1808 40.3379 18.2564 40.6277L18.421 40.6895L18.6095 40.7149L19.824 40.7128L20.026 40.6678C20.0476 40.6486 20.074 40.6355 20.1024 40.6299L20.5659 40.4807C20.5832 40.4771 20.6012 40.48 20.6166 40.4889C20.6274 41.7493 20.6103 43.0035 20.8843 44.2554C21.0143 44.8496 20.3427 44.8029 19.9635 44.9466C19.7736 45.0188 19.578 45.0755 19.3858 45.1394L19.2269 45.1979L19.1274 45.2117L18.8674 45.283L18.5965 45.3066L18.2576 45.3729L17.3695 45.3922H17.205L16.5835 45.3716L16.152 45.3016L16.0496 45.286L15.8001 45.2138L15.6988 45.1974L15.448 45.1237L15.3559 45.1057L15.1853 45.0392C14.3829 44.7776 13.7409 44.2417 13.0493 43.7909C13.0253 43.7756 13.005 43.7552 12.9899 43.7311C11.8856 42.6465 11.4115 41.27 11.1394 39.791C10.8325 38.1252 10.0313 36.8196 8.39316 36.1521L8.24547 36.0821L8.14671 36.0591L7.98204 35.9934L7.88418 35.9708L7.71663 35.9001C6.10192 35.0809 5.90946 34.5488 6.63114 32.8667C6.88988 32.1981 7.18209 31.543 7.50665 30.9037C8.84276 28.4951 8.14618 26.4648 6.40635 24.6036C5.8367 23.9941 5.31308 23.2494 5.94881 22.5092C6.80121 21.5161 7.90891 18.4541 7.90891 18.4541C7.90891 18.4541 8.63115 14.9067 8.66726 14.8859C8.66726 14.9535 9.10439 16.4026 9.09211 16.4678C8.93846 17.2871 7.89177 21.0949 7.99143 21.9439ZM19.4748 64.7154C18.0991 64.898 16.7314 64.7051 15.3613 64.6288L15.1649 64.6143L13.78 64.5421L13.5924 64.5329C13.2163 64.5087 12.8404 64.4688 12.464 64.463C9.91489 64.425 7.36575 64.391 4.81655 64.361L4.5365 64.3727C4.42856 64.4288 4.30769 64.4553 4.18619 64.4495C4.06469 64.4437 3.94691 64.4058 3.84481 64.3397C3.84047 64.1943 3.83625 64.0489 3.83216 63.9037V63.2984V59.6873C3.83216 59.4857 3.83216 59.2841 3.83216 59.0826C3.83216 58.8157 3.83216 58.5487 3.83216 58.2817C3.83216 58.0801 3.83216 57.8785 3.83216 57.677C3.83216 57.4102 3.83216 57.1432 3.83216 56.8761C3.83216 56.6746 3.83216 56.4731 3.83216 56.2716C3.9627 52.2141 3.51475 48.178 3.39179 44.1307C3.28093 40.4755 3.3277 36.8153 3.30495 33.1574C3.30495 32.9559 3.30495 32.7544 3.30495 32.5527C3.30495 32.2859 3.30495 32.019 3.30495 31.752C3.30495 31.5504 3.30495 31.3488 3.30495 31.1473C3.30495 30.8804 3.30495 30.6135 3.30495 30.3465C3.30495 30.1449 3.30495 29.9434 3.30495 29.7419C3.30495 29.4749 3.30495 29.2079 3.30495 28.9409C3.30495 28.7393 3.30495 28.5377 3.30495 28.3362C3.27654 26.4884 3.24818 24.6407 3.21989 22.7932C3.21881 22.4741 3.21774 22.1551 3.21665 21.8362C3.25585 18.9844 3.0819 16.1336 2.69628 13.3077C2.69195 13.2521 2.68755 13.1965 2.6831 13.1409C2.33559 10.1509 1.98809 7.16088 1.64059 4.17088C1.6389 4.08554 1.63709 4.0002 1.63516 3.91486C1.63926 3.8259 1.64329 3.73695 1.64726 3.64799L1.8112 3.61387L2.01739 3.64095C2.43473 3.75525 2.87518 3.75481 3.2923 3.63969L3.50499 3.61694L4.25736 3.55158L4.4697 3.53135L5.04387 3.46274L5.17405 3.43999L5.66515 3.37644L5.87676 3.35152L6.28826 3.29085L6.57985 3.26251L6.89961 3.20202L7.10437 3.18216L7.86036 3.11283L8.16006 3.09188L9.26652 3.02508L9.65544 3.00016L10.6711 2.93715L12.6404 2.91692L14.9961 2.75713L17.6493 2.73908L21.129 2.67372L21.5161 2.64844L22.9031 2.58091L23.8877 2.56286L24.8152 2.49786L25.1198 2.47131L25.9609 2.41101L26.349 2.38483L27.6295 2.3229L27.8399 2.30232L28.5993 2.23587L28.8952 2.2124L30.2644 2.14704L30.4744 2.12898L31.2302 2.05875L31.4468 2.0304L31.8491 1.97172L32.1465 1.94807L32.6427 1.88469L33.0309 1.85038L33.4281 1.79622L33.7276 1.77293L34.3928 1.70793L34.6084 1.68066L35.0137 1.62162L35.3095 1.59707L36.2411 1.53315L36.4498 1.51275L37.5588 1.4454L37.8584 1.41976C39.2547 1.43769 40.651 1.45575 42.0473 1.47393C41.9026 3.52146 41.9989 5.57889 42.3342 7.60396L42.3394 7.77098C42.3662 8.59359 42.393 9.4162 42.4197 10.2388C42.4225 10.3529 42.4253 10.4673 42.4282 10.5819C42.4549 10.995 42.4816 11.4081 42.5082 11.8212C42.5098 11.9649 42.5113 12.1086 42.5127 12.2524C42.5403 12.8406 42.5678 13.4289 42.5954 14.0171C42.5972 14.2193 42.5991 14.4216 42.601 14.624C42.6287 15.4758 42.6564 16.3278 42.6841 17.1799C42.6856 17.587 42.6872 17.9941 42.6888 18.4012V19.378C42.6888 19.521 42.6888 19.664 42.6888 19.807C42.6888 20.132 42.6888 20.4575 42.6888 20.7836C42.6888 20.9266 42.6888 21.0696 42.6888 21.2126C42.6888 21.5376 42.6888 21.8631 42.6888 22.1892C42.6888 22.3322 42.6888 22.4752 42.6888 22.6182C42.6888 22.9432 42.6888 23.2688 42.6888 23.595C42.6888 23.7672 42.6888 23.9394 42.6888 24.1118C42.6888 24.2908 42.6888 24.4698 42.6888 24.6489C42.6854 24.7349 42.6821 24.8208 42.6788 24.9068L42.6945 24.9687C42.6524 25.3403 42.6403 25.7146 42.6584 26.0881C42.2938 26.409 41.9267 26.727 41.557 27.042C40.662 27.8003 39.7735 28.6208 38.5488 28.8541C38.1133 28.9371 37.6722 28.9362 37.3729 28.567C37.0704 28.1938 37.291 27.8628 37.5191 27.5062C38.432 26.0824 37.6635 23.387 36.1158 22.6334C35.5574 22.3615 35.2712 22.0038 35.195 21.3843C35.0016 19.8043 34.35 18.5026 32.8176 17.7981L32.5795 17.7223L32.4796 17.7059L32.1418 17.6369L31.9432 17.6212L31.5294 17.5538L31.338 17.5414L30.5607 17.4603L30.3724 17.4515L29.1576 17.3771L29.0422 17.359L28.7952 17.274L28.7851 17.2702L28.6285 17.2045L28.0053 16.9138L27.9233 16.8513C27.9014 16.8336 27.8746 16.8231 27.8466 16.8213L27.7402 16.7458L27.7326 16.7404L27.6604 16.678L26.3194 15.7752L26.256 15.7181L26.0643 15.5982L25.9908 15.5359L25.8157 15.4193L25.7254 15.3507L25.528 15.2512L25.3771 15.1815L25.2794 15.1588L25.1124 15.09L25.0221 15.0687L24.8416 14.9948L24.8252 14.9898L24.5892 14.9222L24.4054 14.8935L24.145 14.8222L24.0536 14.8058L23.8821 14.7386L23.79 14.718L23.7131 14.6734L23.6098 14.6312L23.5335 14.577L23.4392 14.542L23.3567 14.4853L23.2664 14.4535L23.1816 14.3975L22.8883 14.286L22.7473 14.2289L22.6294 14.1968L22.4801 14.1327L22.3768 14.1056L22.2134 14.0362L22.1232 14.014L21.9507 13.9512L21.7555 13.9319C20.5881 13.8741 19.4213 14.2249 18.2528 13.9395L18.237 13.9342L18.0883 13.8728L17.5195 13.5784C17.5198 13.5733 17.5188 13.5683 17.5167 13.5637C17.5147 13.559 17.5116 13.555 17.5077 13.5517C17.5038 13.5485 17.4992 13.5463 17.4942 13.5452C17.4893 13.5441 17.4842 13.5441 17.4793 13.5453L16.8377 13.0506L16.7655 12.9878L16.5805 12.8738L16.5021 12.8123L16.4203 12.7819L16.3242 12.7157C16.3024 12.6997 16.2758 12.6916 16.2488 12.6927L16.1507 12.6359L16.0489 12.6122L15.8875 12.5454L15.7791 12.5263L15.5352 12.454L15.4269 12.438L14.8258 12.3535C13.9032 12.1987 12.9379 12.0063 12.0518 12.2567C11.5495 12.4063 11.0164 12.4193 10.5074 12.2944C9.99839 12.1696 9.53186 11.9113 9.15583 11.5462C8.19148 10.6579 6.95595 10.1081 6.14706 9.04245C5.99468 8.84185 5.72383 8.58041 5.45264 8.90468C5.20491 9.20098 5.50031 9.37304 5.68538 9.5489C7.86053 11.6117 8.16279 14.2753 7.71538 16.9733C7.42649 18.7199 6.47675 20.3196 5.42033 21.8063C4.57406 22.9979 5.07727 24.9557 6.32599 25.7805L6.43143 25.7973C7.46294 27.0296 7.87804 28.37 7.18272 29.9219C6.69396 31.0126 6.17468 32.094 5.76572 33.2147C5.45517 34.0658 5.39162 34.9601 6.07863 35.7226L6.08802 35.7462L6.11295 35.7498L7.37448 36.5024L7.39253 36.528H7.42233L7.82315 36.6725L7.95207 36.7174L8.59847 37.0298L8.66761 37.0887C9.86885 37.8109 10.2702 39.0013 10.5217 40.2755C10.8182 41.7773 11.3429 43.1643 12.4898 44.2433C12.492 44.2552 12.4984 44.2659 12.5078 44.2734C12.5172 44.281 12.529 44.2849 12.5411 44.2845C12.5507 44.3027 12.5668 44.3166 12.5862 44.3235L12.6073 44.3439L12.8184 44.4965L12.8847 44.5543L14.037 45.2888L14.1235 45.348L14.1596 45.366L14.2993 45.4424L14.3284 45.4545L14.4642 45.5208L14.7651 45.6324L14.8989 45.6865L15.0221 45.7214L15.1604 45.7712L15.359 45.8136L15.5161 45.8678L15.6405 45.896L15.8683 45.9599L15.9924 45.9837L16.393 46.0458L16.8551 46.0762L17.8895 46.0751L18.3512 46.0505L18.6812 45.9873L18.9688 45.9554L19.1962 45.8958L19.3177 45.8729L19.5491 45.8084L19.6714 45.7772L19.8158 45.7215L19.9335 45.6966L20.1657 45.6333C22.1856 45.1291 23.2151 46.9347 24.7329 47.6013C24.7634 47.6147 24.7654 47.7819 24.728 47.8479C23.8433 49.4007 23.3273 51.1182 22.5554 52.7179C21.9747 53.9209 21.8427 55.3139 20.9687 56.385L20.8759 56.4391C20.8485 56.4359 20.8208 56.4412 20.7966 56.4543L20.3701 56.4648L20.2618 56.4467L20.1051 56.3788L20.0184 56.3528L19.9281 56.2936L19.8404 56.2654L19.7436 56.1963L19.7255 56.1829C19.7235 56.1697 19.7168 56.1576 19.7066 56.1488C19.6965 56.14 19.6835 56.1351 19.6701 56.1349L19.3749 55.9182C19.3732 55.9037 19.3664 55.8902 19.3556 55.8803C19.3449 55.8703 19.3309 55.8646 19.3162 55.8641C18.6148 55.1697 18.4604 54.2425 18.2221 53.3441C18.0868 52.8347 18.1401 52.5689 18.757 52.6332C19.0739 52.6662 19.407 52.6058 19.5921 52.2795C19.6166 52.2472 19.6334 52.2097 19.641 52.1698C19.6487 52.13 19.6471 52.0889 19.6363 52.0498C19.6255 52.0107 19.6059 51.9747 19.5789 51.9444C19.5519 51.9141 19.5183 51.8904 19.4807 51.8752C19.4598 51.8487 19.4332 51.8271 19.4029 51.8123C19.3725 51.7974 19.3392 51.7896 19.3054 51.7894C19.2716 51.7893 19.2382 51.7967 19.2077 51.8113C19.1772 51.8258 19.1503 51.8471 19.1292 51.8734L19.0232 51.9191C18.8038 52.0177 18.5857 52.1899 18.36 51.9308C18.7211 51.5349 19.0732 51.1294 19.4479 50.7462C19.6598 50.5296 19.809 50.3445 19.4746 50.1202L19.2119 50.1146L19.1239 50.1488L19.0631 50.2074C18.9589 50.2863 18.8563 50.3676 18.7498 50.4433C18.5931 50.5543 18.4335 50.6612 18.2752 50.7699C18.3287 50.5778 18.3688 50.3822 18.3954 50.1845C18.4225 49.8054 18.9428 49.5042 18.5723 49.0651L18.1823 49.0689C18.0067 49.5118 17.6416 50.4219 17.632 50.455L17.4567 50.4911C17.2671 50.1244 17.5784 49.6519 17.21 49.3227C17.0454 49.2491 17.0454 49.2491 16.9282 49.3245C16.3685 50.0018 16.9564 50.6489 16.9807 51.3106C17.0107 51.3525 16.9203 51.3621 16.8905 51.3876C16.8432 51.3749 16.796 51.3621 16.7489 51.3491C16.7256 51.3296 16.5503 51.2126 16.4849 51.1736L16.4178 51.1205L16.2244 50.999L15.9644 50.9947C15.9341 51.0071 15.829 51.0479 15.8279 51.077C15.786 51.1205 15.7563 51.1742 15.7417 51.2328C15.7271 51.2914 15.7282 51.3527 15.7448 51.4108C15.7614 51.4688 15.793 51.5215 15.8363 51.5635C15.8797 51.6055 15.9333 51.6353 15.9919 51.6501C17.2442 52.1351 17.5699 53.1725 17.7523 54.3613C17.8608 54.8611 18.0548 55.3384 18.3257 55.7722C18.9123 56.8315 20.195 57.3849 21.1604 57.0422C21.1826 57.0758 21.2047 57.1094 21.2267 57.1429C21.1129 57.5346 20.9773 57.9213 20.8885 58.3184C20.4104 60.4475 19.9446 62.582 19.4748 64.7154ZM41.7167 65.2459L40.2227 65.223L39.3465 65.1574L38.6423 65.1349L37.4146 65.0697L37.0596 65.0478L35.8318 64.9801L35.2147 64.9595L34.6028 64.8953L33.8986 64.8712L32.669 64.8034L32.1413 64.7835L31.5285 64.7201L26.7798 64.6963L24.1493 64.6335L22.9013 64.6315L22.2047 64.697L21.4934 64.7241C21.183 64.8336 20.8434 64.8266 20.5377 64.7046C21.4683 59.3 22.8127 54.0123 24.931 48.9371C25.2628 48.1426 25.6481 48.1107 26.4976 48.2843C30.2804 49.0578 34.1017 49.4554 37.9281 48.5053C38.5322 48.3555 38.4464 48.832 38.5403 49.1158C40.0539 53.6857 40.8379 58.4113 41.5292 63.1569C41.6302 63.8495 41.7668 64.5369 41.8869 65.2268L41.7167 65.2459ZM43.907 65.3987C43.8514 65.4562 43.776 65.4906 43.6961 65.4949C43.6162 65.4992 43.5376 65.4731 43.4762 65.4218L43.3736 65.4037L42.8534 65.3149C42.2389 62.0821 41.6242 58.8493 41.0091 55.6165C40.971 55.4166 40.921 55.2193 40.8765 55.0207L40.9108 54.9304L41.6349 55.3832L41.79 55.4472L41.9671 55.4779L42.4033 55.5371L43.1272 55.5308L43.294 55.4766L43.9021 55.2848C43.9129 55.4103 43.9259 55.5355 43.9438 55.6602C44.0668 56.5146 44.0899 57.3908 44.1661 58.2515C44.1661 58.2534 44.1661 58.255 44.167 58.2568C44.1556 60.6374 43.8607 63.0164 43.907 65.3987ZM43.617 42.9621C43.5554 43.0148 43.4852 43.0565 43.4095 43.0854C43.4082 42.9867 43.4011 42.8881 43.3882 42.7902C43.0286 40.8783 44.5095 40.5721 45.7622 40.0666L45.9066 40.0888C45.1438 41.0474 44.3806 42.0052 43.617 42.9621Z" fill="#363636"/>
    <path d="M18.1826 49.0665L18.5726 49.0627C18.5488 49.0339 18.5188 49.0108 18.4849 48.995C18.4511 48.9793 18.4141 48.9713 18.3767 48.9717C18.3393 48.9721 18.3025 48.9808 18.2689 48.9971C18.2354 49.0135 18.2059 49.0372 18.1826 49.0665Z" fill="#363636"/>
    <path d="M19.8236 40.7129L18.6094 40.7151C19.0052 40.8361 19.4282 40.8353 19.8236 40.7129Z" fill="#363636"/>
    <path d="M17.8082 17.3486L17.6602 17.4989L17.8055 17.6122C17.8065 17.5244 17.8074 17.4365 17.8082 17.3486Z" fill="#363636"/>
    <path d="M13.0479 43.7927L12.9883 43.7329C13.0034 43.757 13.0238 43.7775 13.0479 43.7927Z" fill="#363636"/>
    <path d="M20.102 40.6299C20.0735 40.6355 20.047 40.6486 20.0254 40.668L20.102 40.6299Z" fill="#363636"/>
    <path d="M20.5645 40.4806L20.5887 40.4925L20.6155 40.4886C20.6001 40.4797 20.5819 40.4769 20.5645 40.4806Z" fill="#363636"/>
    <path d="M17.8496 30.0952C17.8513 30.1086 17.8575 30.121 17.8671 30.1305C17.8768 30.1399 17.8893 30.1459 17.9027 30.1474C17.8882 30.127 17.8703 30.1093 17.8496 30.0952Z" fill="#363636"/>
    <path d="M30.6117 25.2485C30.611 25.2344 30.6052 25.221 30.5955 25.2108C30.5857 25.2006 30.5726 25.1942 30.5586 25.1929C30.5709 25.2159 30.5892 25.2351 30.6117 25.2485Z" fill="#363636"/>
    <path d="M20.3581 14.9318C20.3398 14.9165 20.321 14.9017 20.3018 14.8872C20.3041 14.9002 20.3111 14.912 20.3215 14.9202C20.3318 14.9284 20.3449 14.9325 20.3581 14.9318Z" fill="#363636"/>
    <path d="M32.0117 33.2988C31.3879 32.6412 29.9187 32.3292 29.2329 32.7769C27.3391 34.0134 27.0742 35.6366 26.8877 38.4283C27.1269 40.4919 27.3427 41.2129 28.302 42.2337C28.7002 42.6769 29.2035 43.0128 29.7656 43.2105C30.3277 43.4081 30.9304 43.4612 31.5184 43.3647C33.0184 43.1275 33.6473 42.0246 33.7905 40.5806C33.8981 39.4162 33.8821 38.2438 33.7427 37.0828C33.6083 35.6625 32.9984 34.3292 32.0117 33.2988ZM32.2283 41.9084C31.9384 42.5329 30.354 42.3883 29.5074 41.7392C27.8298 40.4529 27.6988 38.686 28.0581 36.8293C28.2713 35.728 28.4847 34.793 29.1674 33.8711C29.4305 33.5158 30.0537 33.1211 30.5604 33.2269C32.0525 33.3461 32.3959 34.7448 32.501 35.0046C33.4801 37.4284 33.3026 39.5931 32.2276 41.9085L32.2283 41.9084Z" fill="#363636"/>
    <path d="M28.1362 50.4108C28.1494 50.3684 28.1539 50.3238 28.1496 50.2797C28.1453 50.2355 28.1321 50.1926 28.111 50.1536C28.0899 50.1145 28.0612 50.0801 28.0265 50.0523C27.9919 50.0245 27.9521 50.004 27.9094 49.9918C27.7038 49.9129 27.5687 50.0257 27.4885 50.201C27.2829 50.6411 27.1967 51.1276 27.2386 51.6115C27.1868 51.9568 27.4012 52.4477 27.0061 52.6022C26.6892 52.7265 26.1297 52.7118 25.9213 52.5089C25.6685 52.2626 26.2413 52.0517 26.3043 51.7464C26.3294 51.6628 26.342 51.5759 26.3416 51.4886C26.3081 51.1618 26.0889 50.8041 26.3236 50.5199C26.4776 50.3327 26.7188 50.205 26.5321 49.9602C26.4665 49.8975 26.3886 49.8492 26.3033 49.8181C26.218 49.787 26.1273 49.7739 26.0367 49.7796C25.9096 49.7909 25.7918 49.8511 25.7081 49.9475C25.6245 50.0438 25.5815 50.1689 25.5882 50.2964C25.5656 50.714 25.779 51.3033 25.5736 51.5254C24.5264 52.658 25.4876 54.1639 24.7723 55.3312C24.7515 55.3754 24.7409 55.4237 24.7412 55.4726C24.7416 55.5215 24.7529 55.5696 24.7743 55.6136C24.7958 55.6575 24.8267 55.6961 24.865 55.7264C24.9033 55.7568 24.948 55.7782 24.9956 55.789C25.0331 55.8062 25.0739 55.8149 25.1152 55.8145C25.1564 55.8141 25.197 55.8047 25.2342 55.7868C25.2714 55.7689 25.3041 55.7431 25.3302 55.7111C25.3562 55.6791 25.3749 55.6418 25.3849 55.6018C25.5412 55.028 25.6545 54.4419 25.8218 53.8715C25.8814 53.6682 25.4826 53.2719 26.0493 53.2654C26.5405 53.2598 27.072 53.217 27.0487 53.9492C27.0371 54.3132 26.9749 54.6754 26.9519 55.0394C26.9353 55.303 26.9073 55.624 27.2872 55.6294C27.6303 55.6343 27.6234 55.3328 27.6417 55.0809C27.7547 53.5187 27.7785 51.9479 28.1362 50.4108Z" fill="#363636"/>
    <path d="M31.1441 56.2267C31.1889 55.7087 30.6144 55.8441 30.2775 55.7307C29.9017 55.6043 29.2664 55.8955 29.1806 55.3696C29.0914 54.8191 29.2554 54.2109 29.4117 53.657C29.4325 53.5833 30.0604 53.7025 30.406 53.6931C30.7 53.685 31.1866 53.9739 31.2171 53.4383C31.246 52.9339 30.7296 53.0646 30.4095 53.0086C30.0967 52.9545 29.658 53.0697 29.5789 52.636C29.3684 51.4779 29.7965 51.0547 30.949 51.224C31.1857 51.2589 31.3682 51.2139 31.4237 50.9664C31.482 50.7069 31.3135 50.5955 31.0871 50.5487C30.5731 50.4424 30.0599 50.3306 29.5437 50.2349C29.4934 50.2202 29.4405 50.2169 29.3887 50.2251C29.3369 50.2333 29.2877 50.2528 29.2444 50.2824C29.2011 50.3119 29.1648 50.3506 29.1383 50.3958C29.1118 50.441 29.0956 50.4915 29.0909 50.5437C28.8711 52.0739 28.6647 53.6061 28.4387 55.248C28.4297 56.1003 28.6964 56.3075 30.2636 56.4217C30.5577 56.4433 31.09 56.8527 31.1441 56.2267Z" fill="#363636"/>
    <path d="M26.0031 58.3218C24.8656 59.2448 24.8186 60.6365 24.5133 61.7559C24.5045 62.1598 24.5231 62.4229 24.8268 62.4509C25.1337 62.4791 25.1864 62.2472 25.2059 61.9814C25.3011 61.063 25.5633 60.1696 25.9796 59.3453C26.0565 59.1798 26.2589 59.0723 26.4034 58.9382C26.4586 59.0958 26.4994 59.2581 26.5252 59.4232C26.5944 60.4285 26.6439 61.4354 26.7161 62.4406C26.7341 62.6834 26.7652 62.9823 27.0994 62.9803C27.2119 62.9803 27.4257 62.7911 27.4199 62.6995C27.3316 61.3466 27.2693 59.9879 27.0779 58.6479C26.9952 58.0726 26.4888 57.9278 26.0031 58.3218Z" fill="#363636"/>
    <path d="M37.6481 60.8247C37.4279 60.1648 37.1334 59.6881 36.5363 59.6361C36.2241 59.6089 35.5808 59.5002 35.599 59.9727C35.6418 61.0826 35.5416 62.2286 36.0054 63.2931C36.0314 63.3779 36.0858 63.4512 36.1595 63.5005C36.2333 63.5499 36.3217 63.5723 36.4101 63.5639C36.4505 63.5629 36.4903 63.5539 36.5272 63.5373C36.5641 63.5207 36.5972 63.4969 36.6248 63.4673C36.6524 63.4378 36.6738 63.403 36.6877 63.365C36.7017 63.3271 36.708 63.2867 36.7062 63.2463C36.7259 63.0253 36.7517 62.8051 36.775 62.5844C36.9078 62.8063 37.0537 63.0217 37.1697 63.2525C37.2793 63.4706 37.4085 63.6365 37.6743 63.539C37.8802 63.4636 37.8948 63.2758 37.8435 63.0967C37.621 62.3174 36.4839 61.6443 37.6481 60.8247ZM36.5829 61.0618L36.3001 60.6176L36.4875 60.3288C36.6139 60.4551 36.7874 60.5635 36.8474 60.7168C36.8744 60.7872 36.678 60.9444 36.5829 61.0618Z" fill="#363636"/>
    <path d="M35.0221 59.876C34.6791 59.5972 34.3108 59.2388 33.8112 59.502C33.1173 59.8676 32.9625 60.5433 32.9277 61.2496C32.8807 62.199 32.9625 63.2866 34.1194 63.326C35.3471 63.3672 35.298 62.2053 35.3888 61.3435C35.3089 60.813 35.4845 60.2513 35.0221 59.876ZM34.1374 62.6287C33.6918 62.6802 33.593 62.069 33.6138 61.6273C33.6404 61.0738 33.5084 60.2678 34.1815 60.1928C34.8358 60.1206 34.6199 60.8862 34.687 61.3504C34.619 61.8263 34.8143 62.5505 34.138 62.6289L34.1374 62.6287Z" fill="#363636"/>
    <path d="M35.6857 55.9966C35.8058 56.9671 36.2503 57.6742 37.4312 57.4855C37.6895 57.4535 38.1267 57.6314 38.1339 57.1636C38.1408 56.7073 37.7116 56.7782 37.4297 56.8124C36.5885 56.9138 36.4159 56.3781 36.3464 55.7339C36.179 54.1992 35.9764 52.6733 35.4752 51.202C35.3967 50.9714 35.314 50.775 35.0347 50.8253C34.7357 50.8795 34.7245 51.1211 34.797 51.3399C35.2981 52.8544 35.4911 54.4229 35.6857 55.9966Z" fill="#363636"/>
    <path d="M32.5901 55.376C32.5957 56.6834 33.2149 57.189 34.5169 56.9396C34.7283 56.899 34.8725 56.797 34.8617 56.5635C34.8652 56.5187 34.8581 56.4736 34.841 56.4319C34.8238 56.3903 34.7971 56.3533 34.7629 56.324C34.7288 56.2946 34.6882 56.2738 34.6445 56.2631C34.6007 56.2524 34.5551 56.2521 34.5113 56.2624C33.2894 56.4948 33.1629 55.7946 33.2779 54.8564C33.2954 54.594 33.297 54.3307 33.2827 54.0681L33.3395 54.0639C33.2633 53.0467 33.1849 52.0298 33.1123 51.0125C33.0943 50.7645 33.015 50.5556 32.7313 50.5933C32.4648 50.6294 32.3883 50.8546 32.4244 51.0936C32.6412 52.5148 32.584 53.9462 32.5901 55.376Z" fill="#363636"/>
    <path d="M24.5169 58.3668C24.7892 58.4235 25.0597 58.4923 25.1649 58.1655C25.181 58.1236 25.1874 58.0787 25.1838 58.034C25.1803 57.9894 25.1667 57.946 25.1442 57.9073C25.1217 57.8685 25.0908 57.8353 25.0537 57.8101C25.0167 57.7848 24.9745 57.7682 24.9302 57.7614C24.4351 57.6411 23.9391 57.5212 23.4379 57.4331C23.1896 57.3894 22.9829 57.5187 23.0046 57.7964C23.108 59.1325 22.779 60.4047 22.4732 61.6829C22.414 61.9302 22.2984 62.2478 22.6884 62.3188C23.0903 62.391 23.0463 62.0174 23.1727 61.786C23.3812 61.4039 22.9805 60.5432 23.9617 60.723C24.0216 60.7339 24.1783 60.5694 24.1753 60.4901C24.1743 60.4213 24.1586 60.3535 24.1293 60.2912C24.1 60.229 24.0578 60.1737 24.0054 60.129C23.1929 59.657 23.8039 58.9422 23.7479 58.3621C23.7237 58.1261 24.2569 58.5228 24.5169 58.3668Z" fill="#363636"/>
    <path d="M28.9946 58.8C27.7802 59.151 27.1765 61.1771 27.7864 62.8625C27.897 63.1682 28.0606 63.4403 28.4138 63.4535C28.885 63.4716 29.3989 63.601 29.7768 63.1883C29.8149 63.125 29.8387 63.0541 29.8464 62.9806C29.8542 62.9072 29.8458 62.8329 29.8218 62.7631C29.7855 62.7143 29.7372 62.6758 29.6816 62.6512C29.626 62.6267 29.565 62.617 29.5045 62.6231C28.2587 63.1951 28.3024 62.3279 28.2627 61.425C28.429 60.7674 28.1424 59.7787 29.2505 59.4833C29.4551 59.4291 29.7483 59.6961 29.8924 59.371C29.9105 59.2977 29.9119 59.2213 29.8962 59.1475C29.8806 59.0737 29.8484 59.0044 29.8021 58.9449C29.5876 58.6919 29.2947 58.7134 28.9946 58.8Z" fill="#363636"/>
    <path d="M39.8896 59.7017C39.6188 59.6399 39.4722 59.8012 39.4399 60.0538C39.3769 60.5456 39.1804 60.507 38.8706 60.2305C38.667 60.0649 38.4522 59.9135 38.2276 59.7777C38.1916 59.7518 38.1508 59.7334 38.1075 59.7237C38.0642 59.7139 38.0194 59.7131 37.9758 59.7211C37.9322 59.7292 37.8906 59.746 37.8537 59.7705C37.8167 59.795 37.7851 59.8268 37.7607 59.8638C37.727 59.8937 37.7007 59.9311 37.6841 59.973C37.6676 60.015 37.6611 60.0602 37.6653 60.1051C37.6695 60.15 37.6842 60.1933 37.7082 60.2314C37.7323 60.2695 37.765 60.3015 37.8037 60.3246C39.2987 60.9304 39.0394 62.235 39.0704 63.4267C39.0704 63.6753 39.0555 63.9249 39.0735 64.172C39.0929 64.4373 38.932 64.843 39.3805 64.8612C39.8499 64.8804 39.7407 64.473 39.7614 64.18C39.8559 62.8497 39.4308 61.4765 40.1045 60.1897C40.1325 60.1452 40.1491 60.0944 40.1529 60.042C40.1567 59.9895 40.1476 59.9369 40.1264 59.8887C40.1053 59.8406 40.0726 59.7984 40.0313 59.7658C39.99 59.7331 39.9414 59.7111 39.8896 59.7017Z" fill="#363636"/>
    <path d="M32.7533 59.2221C32.1365 59.1181 31.5133 59.0457 30.8896 58.994C30.8448 58.9896 30.7995 58.9959 30.7576 59.0124C30.7157 59.0289 30.6783 59.0551 30.6485 59.0888C30.6186 59.1226 30.5972 59.1629 30.5861 59.2066C30.5749 59.2502 30.5742 59.2959 30.5841 59.3398C30.6105 59.4676 30.7838 59.6776 30.8609 59.6648C31.6777 59.531 31.5793 60.1391 31.6034 60.5909C31.6395 61.2598 31.6126 61.932 31.6126 62.603C31.5162 62.8281 31.4894 63.0647 31.792 63.1203C31.8423 63.135 31.8954 63.1373 31.9468 63.127C31.9982 63.1167 32.0463 63.0942 32.0871 63.0613C32.1279 63.0284 32.1601 62.9862 32.181 62.9382C32.202 62.8902 32.211 62.8378 32.2073 62.7855C32.2434 61.9696 32.2904 61.1517 32.2669 60.3365C32.2577 60.0183 32.2203 59.8362 32.6242 59.8522C32.6972 59.8406 32.7661 59.8105 32.8242 59.7647C32.8822 59.7189 32.9277 59.6591 32.9561 59.5908C32.9781 59.4799 32.8465 59.2378 32.7533 59.2221Z" fill="#363636"/>
    <path d="M31.4203 35.2541C31.3689 35.0761 31.2652 34.9177 31.1227 34.7994C30.9801 34.6811 30.8053 34.6084 30.6209 34.5907C30.4351 34.5712 30.248 34.6121 30.0873 34.7075C29.9266 34.8028 29.8009 34.9475 29.729 35.1199C29.1151 36.6563 28.8121 38.2419 29.4417 39.8429C29.7501 40.627 31.0525 40.9856 31.3865 40.4475C31.8142 39.7585 32.1809 39.0419 32.0759 38.4201C32.0559 37.3332 31.8336 36.2595 31.4203 35.2541Z" fill="#363636"/>
</svg>
